<svg id="Layer_1" data-name="Layer 1" xmlns="http://www.w3.org/2000/svg" viewBox="0 0 512 512"><defs><style>.cls-1{fill:#141f38;}</style></defs><title>doctor-2-glyph</title><path class="cls-1" d="M128,166.4V128H384v38.4a127.84,127.84,0,0,1-64,110.72V303l-64,38.4L192,303V277.12A127.84,127.84,0,0,1,128,166.4ZM256,0A128,128,0,0,0,130.56,102.4H381.44A128,128,0,0,0,256,0ZM166.4,422.4a12.8,12.8,0,1,0,12.8-12.8A12.84,12.84,0,0,0,166.4,422.4ZM345.92,317.25l-.32.19V385.6A51.35,51.35,0,0,1,384,435.2V512h44.8a32,32,0,0,0,32-32A172.78,172.78,0,0,0,345.92,317.25ZM332.8,409.6a25.59,25.59,0,0,0-25.6,25.6V512h51.2V435.2A25.59,25.59,0,0,0,332.8,409.6ZM320,332.8l-64,38.4-64-38.4v53.44a38.4,38.4,0,1,1-25.6,0v-68.8l-.32-.19A172.78,172.78,0,0,0,51.2,480a32,32,0,0,0,32,32H281.6V435.2A51.35,51.35,0,0,1,320,385.6Z"/></svg>